<svg xmlns="http://www.w3.org/2000/svg" width="48" height="44" viewBox="0 0 48 44">
  <path fill="#fff" d="M42 .5a5.5 5.5 0 0 1 5.493 5.227L47.5 6v22a5.5 5.5 0 0 1-5.227 5.493L42 33.5H26.479l-13.607 9.721c-.957.684-2.274.048-2.367-1.092L10.5 42v-8.5H6a5.5 5.5 0 0 1-3.691-1.423l-.198-.188a5.5 5.5 0 0 1-1.604-3.616L.5 28V17a1.5 1.5 0 0 1 1.356-1.493L2 15.5h20.379l-5.44-5.439a1.5 1.5 0 0 1-.103-2.007l.103-.114a1.5 1.5 0 0 1 2.007-.103l.114.103 8.02 8.02.062.069-.082-.089c.041.041.08.085.116.13l.052.07.035.052.035.058.036.066c.105.206.165.438.165.685s-.059.479-.165.684l-.036.066-.036.059-.034.051-.053.071-.033.04-.062.069-.02.02-8 8a1.5 1.5 0 0 1-2.224-2.007l.103-.114 5.44-5.439H3.5V28a2.5 2.5 0 0 0 .598 1.622l.134.146a2.5 2.5 0 0 0 1.57.724L6 30.5h6a1.5 1.5 0 0 1 1.493 1.356L13.5 32v7.085l11.628-8.306a1.5 1.5 0 0 1 .716-.271L26 30.5h16a2.5 2.5 0 0 0 2.492-2.302L44.5 28V6a2.5 2.5 0 0 0-2.302-2.492L42 3.5H6a2.5 2.5 0 0 0-2.492 2.302L3.5 6v5a1.5 1.5 0 0 1-2.993.144L.5 11V6A5.5 5.5 0 0 1 5.727.507L6 .5h36z"></path>
</svg>