<svg xmlns="http://www.w3.org/2000/svg" width="46" height="48" viewBox="0 0 46 48">
  <path fill="#fff" d="M7 34.5a6.5 6.5 0 1 1 0 13 6.5 6.5 0 1 1 0-13zm0-34A6.5 6.5 0 0 1 13.5 7c0 3.073-2.133 5.648-4.999 6.326v4.348a6.51 6.51 0 0 1 4.825 4.826h3.348c.677-2.867 3.252-5 6.326-5a6.5 6.5 0 0 1 6.5 6.5 6.47 6.47 0 0 1-1.073 3.579l7.329 7.787A6.47 6.47 0 0 1 39 34.5a6.5 6.5 0 1 1 0 13c-3.073 0-5.648-2.133-6.326-4.999h-3.348C28.648 45.367 26.073 47.5 23 47.5a6.5 6.5 0 1 1 0-13c3.074 0 5.649 2.133 6.326 5h3.348c.178-.752.485-1.453.899-2.078l-7.33-7.787A6.47 6.47 0 0 1 23 30.5c-3.073 0-5.648-2.133-6.326-4.999h-3.348C12.648 28.367 10.073 30.5 7 30.5A6.5 6.5 0 0 1 .5 24c0-3.074 2.133-5.649 5-6.326v-4.348C2.633 12.649.5 10.074.5 7A6.5 6.5 0 0 1 7 .5zm0 37a3.5 3.5 0 1 0 0 7 3.5 3.5 0 1 0 0-7zm16 0a3.5 3.5 0 1 0 0 7 3.5 3.5 0 1 0 0-7zm16 0a3.5 3.5 0 1 0 0 7 3.5 3.5 0 1 0 0-7zm0-20a6.5 6.5 0 1 1 0 13 6.5 6.5 0 1 1 0-13zm-32 3a3.5 3.5 0 1 0 0 7 3.5 3.5 0 1 0 0-7zm16 0a3.5 3.5 0 1 0 0 7 3.5 3.5 0 1 0 0-7zm16 0a3.5 3.5 0 1 0 0 7 3.5 3.5 0 1 0 0-7zM23 .5a6.5 6.5 0 1 1 0 13 6.5 6.5 0 1 1 0-13zm16 0a6.5 6.5 0 1 1 0 13 6.5 6.5 0 1 1 0-13zm-32 3a3.5 3.5 0 1 0 0 7 3.5 3.5 0 1 0 0-7zm16 0a3.5 3.5 0 1 0 0 7 3.5 3.5 0 1 0 0-7zm16 0a3.5 3.5 0 1 0 0 7 3.5 3.5 0 1 0 0-7z"></path>
</svg>