<svg xmlns="http://www.w3.org/2000/svg" width="44" height="44" viewBox="0 0 44 44">
  <path fill="#fff" d="M18 .5C27.665.5 35.5 8.335 35.5 18a17.42 17.42 0 0 1-2.448 8.932L43.06 36.939a1.5 1.5 0 0 1 .103 2.007l-.103.114-4 4a1.5 1.5 0 0 1-2.007.103l-.114-.103-10.007-10.008A17.42 17.42 0 0 1 18 35.5C8.335 35.5.5 27.665.5 18S8.335.5 18 .5zm13.278 28.9a17.61 17.61 0 0 1-1.879 1.879l8.6 8.601L39.879 38zM18 3.5C9.992 3.5 3.5 9.992 3.5 18S9.992 32.5 18 32.5c3.078 0 5.931-.959 8.279-2.594.012-.012.026-.021.039-.029C30.057 27.255 32.5 22.913 32.5 18c0-8.008-6.492-14.5-14.5-14.5z"></path>
</svg>