<svg xmlns="http://www.w3.org/2000/svg" width="44" height="44" viewBox="0 0 44 44">
  <path fill="#fff" d="M15.5 36A7.52 7.52 0 0 1 8 43.5 7.52 7.52 0 0 1 .5 36 7.52 7.52 0 0 1 8 28.5h4.5v-13H8A7.52 7.52 0 0 1 .504 8.242L.5 8A7.52 7.52 0 0 1 8 .5 7.52 7.52 0 0 1 15.5 8h0v4.5h13V8A7.52 7.52 0 0 1 35.758.504L36 .5A7.52 7.52 0 0 1 43.5 8a7.52 7.52 0 0 1-7.5 7.5h0-4.5v13H36a7.52 7.52 0 0 1 7.496 7.258L43.5 36a7.52 7.52 0 0 1-7.5 7.5 7.52 7.52 0 0 1-7.5-7.5h0v-4.5h-13zM36 31.5h-4.5V36a4.52 4.52 0 0 0 4.5 4.5 4.52 4.52 0 0 0 4.5-4.5 4.52 4.52 0 0 0-4.5-4.5h0zm-23.5 0H8A4.52 4.52 0 0 0 3.5 36 4.52 4.52 0 0 0 8 40.5a4.52 4.52 0 0 0 4.5-4.5h0v-4.5zm16-16h-13v13h13v-13zM8 3.5A4.52 4.52 0 0 0 3.5 8 4.52 4.52 0 0 0 8 12.5h4.5V8a4.52 4.52 0 0 0-4.289-4.495h0zm28 0A4.52 4.52 0 0 0 31.5 8h0v4.5H36a4.52 4.52 0 0 0 4.495-4.289h0L40.5 8A4.52 4.52 0 0 0 36 3.5z"></path>
</svg>