<svg xmlns="http://www.w3.org/2000/svg" width="48" height="48" viewBox="0 0 48 48">
  <path fill="#fff" d="M7.671 7.099c9.198-8.892 23.863-8.798 32.945.284 9.177 9.177 9.177 24.056 0 33.234s-24.056 9.177-33.234 0-9.177-24.056 0-33.234h0zm13.074 27.933l-6.825 6.825a20.54 20.54 0 0 0 20.156 0l-6.824-6.825c-2.121.623-4.386.623-6.507 0zm-6.453-4.861l-6.45 6.45c.509.65 1.063 1.276 1.661 1.874s1.225 1.152 1.875 1.661l6.45-6.45a11.54 11.54 0 0 1-3.536-3.536zm19.413.001a11.54 11.54 0 0 1-3.536 3.536l6.45 6.45c.65-.509 1.277-1.063 1.875-1.662s1.152-1.225 1.661-1.874zm8.151-16.249l-6.825 6.824c.623 2.121.623 4.387-.001 6.508l6.825 6.824a20.54 20.54 0 0 0 .001-20.156zm-35.715-.001a20.54 20.54 0 0 0 0 20.156l6.825-6.825c-.623-2.121-.623-4.386 0-6.506zm20.804 2.104c-1.901-.701-4.002-.7-5.902.003-.095.05-.194.089-.296.116-1.003.414-1.944 1.03-2.759 1.845s-1.434 1.76-1.849 2.766c-.026.099-.064.196-.112.289-.707 1.907-.705 4.017.003 5.923.046.086.081.176.107.269.413 1.009 1.031 1.954 1.85 2.774s1.756 1.431 2.759 1.846c.104.027.207.067.304.118a8.53 8.53 0 0 0 5.902-.002c.093-.049.19-.087.289-.115 1.006-.413 1.949-1.03 2.766-1.847s1.431-1.756 1.846-2.759a1.38 1.38 0 0 1 .117-.303l.07-.192c.633-1.85.609-3.875-.071-5.712-.047-.09-.084-.184-.112-.281-.413-1.009-1.03-1.954-1.85-2.773-.814-.814-1.752-1.428-2.753-1.843a1.45 1.45 0 0 1-.31-.12zM11.379 7.842c-.65.509-1.277 1.063-1.876 1.662s-1.152 1.225-1.661 1.875l6.45 6.45a11.54 11.54 0 0 1 3.537-3.537zm25.24 0l-6.449 6.45a11.54 11.54 0 0 1 3.536 3.536l6.45-6.45c-.509-.65-1.063-1.276-1.661-1.875s-1.225-1.153-1.875-1.662zm-2.542-1.7a20.54 20.54 0 0 0-20.155 0l6.825 6.825c2.121-.623 4.386-.623 6.506 0z"></path>
</svg>