<svg xmlns="http://www.w3.org/2000/svg" width="44" height="48" viewBox="0 0 44 48">
  <path fill="#fff" d="M36 .5a1.5 1.5 0 0 1 1.493 1.356L37.5 2v32a1.5 1.5 0 0 1-2.993.144L34.5 34V3.5h-31V41a3.5 3.5 0 0 0 3.308 3.495l.112.002.055-.007.192-.036.25-.058c.469-.117.936-.29 1.36-.523C9.891 43.261 10.5 42.377 10.5 41h0v-2a1.5 1.5 0 0 1 1.5-1.5h30a1.5 1.5 0 0 1 1.5 1.5h0v2a6.5 6.5 0 0 1-6.5 6.5h0H7a6.5 6.5 0 0 1-6.496-6.267L.5 41V2A1.5 1.5 0 0 1 1.856.507L2 .5h34zm4.5 40h-27v.5c0 1.328-.34 2.46-.948 3.397h0l-.071.103H37a3.5 3.5 0 0 0 3.495-3.308h0L40.5 41v-.5zM28 26.5a1.5 1.5 0 0 1 .144 2.993L28 29.5H10a1.5 1.5 0 0 1-.144-2.993L10 26.5h18zm0-8a1.5 1.5 0 0 1 .144 2.993L28 21.5H10a1.5 1.5 0 0 1-.144-2.993L10 18.5h18zm0-8a1.5 1.5 0 0 1 .144 2.993L28 13.5H10a1.5 1.5 0 0 1-.144-2.993L10 10.5h18z"></path>
</svg>