<svg xmlns="http://www.w3.org/2000/svg" width="44" height="48" viewBox="0 0 44 48">
  <path fill="#fff" d="M22 .5c3.028 0 5.705 1.37 6.352 3.495l13.398 7.736a1.5 1.5 0 0 1 .159.106l.062.05.056.05.048.047.052.056c.064.073.121.153.171.24.039.068.072.135.099.205l.028.077.011.035.03.115.006.032.016.099.005.043.002.026.004.073v.046l.001 15.472c1.519 1.623 1.368 4.626-.147 7.249s-4.04 4.257-6.205 3.753l-13.4 7.735a1.5 1.5 0 0 1-.162.081l-.117.044-.14.039-.031.007-.097.016-.055.006-.047.004c-.067.005-.133.005-.2 0l.098.003a1.52 1.52 0 0 1-.15-.007l-.047-.005-.104-.017-.031-.007-.125-.034-.133-.049-.019-.009-.031-.014-.074-.037-.037-.021-13.401-7.735c-2.166.504-4.694-1.131-6.205-3.754s-1.665-5.627-.145-7.249L1.5 13l.007-.116-.007.146a1.5 1.5 0 0 1 .012-.187l.016-.102.009-.04a1.49 1.49 0 0 1 .164-.42l.083-.129.033-.043.068-.082.025-.026.075-.074.048-.042.069-.055.026-.018.023-.017.063-.041.036-.021 13.398-7.736C16.295 1.87 18.972.5 22 .5zM4.5 15.628v10.969l3.858-2.226c2.33-1.345 5.412.365 7.15 3.38 1.694 2.94 1.68 6.359-.479 7.773l-.17.105-3.859 2.227 9.501 5.485V24.866l-16-9.238zm35 0l-16 9.238v18.475l9.502-5.485-3.858-2.227c-2.331-1.346-2.392-4.865-.648-7.88 1.702-2.942 4.671-4.639 6.977-3.471l.172.093 3.856 2.226V15.628zm.656 14.816c-.576-.239-2.008.59-3.001 2.307-1.021 1.766-.992 3.466-.448 3.78l-.036-.027.108.058c.591.213 1.999-.616 2.979-2.313s.992-3.322.515-3.733c-.023-.01-.045-.023-.067-.036zM6.845 32.75c-1.02-1.768-2.508-2.594-3.051-2.28l.048-.021-.114.07c-.476.408-.461 2.038.516 3.732 1.018 1.766 2.508 2.593 3.05 2.28.007-.012.02-.019.034-.026.509-.363.514-2.027-.484-3.755zm3.083-5.813l-.07.032-2.751 1.588c.889.667 1.702 1.593 2.336 2.693s1.03 2.266 1.164 3.37l2.752-1.588c.54-.312.569-2.015-.45-3.782-.977-1.695-2.39-2.525-2.981-2.312zm21.164 2.314c-.984 1.701-.993 3.34-.507 3.739l.058.041 2.749 1.588c.133-1.104.529-2.27 1.165-3.37s1.448-2.024 2.338-2.691l-2.752-1.589c-.54-.312-2.028.514-3.051 2.282zM28.5 7.545V12c0 2.689-3.018 4.5-6.5 4.5-3.399 0-6.356-1.726-6.495-4.309L15.5 12V7.545l-9.501 5.484L22 22.267l16.001-9.238L28.5 7.545zM25.5 8.823c-1.023.436-2.231.677-3.5.677s-2.478-.241-3.5-.677V12c0 .624 1.459 1.5 3.5 1.5 1.962 0 3.387-.81 3.494-1.427L25.5 12zM22 3.5c-1.952 0-3.372.801-3.492 1.417a1.04 1.04 0 0 1-.002.136C18.58 5.672 20.015 6.5 22 6.5c2.041 0 3.5-.876 3.5-1.5l-.006.049-.004-.128C25.378 4.304 23.956 3.5 22 3.5z"></path>
</svg>