<svg xmlns="http://www.w3.org/2000/svg" width="58" height="42" viewBox="0 0 58 42">
  <path fill="#272e35" d="M29.001.833c9.117 0 16.604 6.969 17.425 15.871h0l.017.213.36.048c5.766.857 10.213 5.76 10.36 11.73h0l.004.305a12.17 12.17 0 0 1-12.167 12.167h0-29.333C7.476 41.167.834 34.525.834 26.333c0-7.089 5.02-13.072 11.841-14.47h0l.084-.016.063-.155A17.49 17.49 0 0 1 28.636.837h0zm0 3c-6.251 0-11.73 3.998-13.716 9.831a1.5 1.5 0 0 1-1.217 1.003c-5.842.798-10.234 5.75-10.234 11.666 0 6.534 5.299 11.833 11.833 11.833h29.333A9.17 9.17 0 0 0 54.167 29a9.17 9.17 0 0 0-9.167-9.167 1.5 1.5 0 0 1-1.5-1.5c0-8.009-6.491-14.5-14.5-14.5zm-.827 27.751l-.016-.01c-.032-.022-.063-.044-.093-.068l-.036-.03a1.51 1.51 0 0 1-.071-.064l-.02-.02-5.779-5.779a1.5 1.5 0 0 1 2.007-2.224l.114.103L27.5 26.71V17a1.5 1.5 0 0 1 2.993-.144L30.5 17v9.708l3.217-3.216a1.5 1.5 0 0 1 2.224 2.007l-.103.114-5.787 5.789a1.51 1.51 0 0 1-.095.086l.103-.096c-.038.038-.078.074-.12.108-.256.209-.584.333-.94.333-.292 0-.565-.084-.796-.228l-.03-.02z"></path>
</svg>