<svg xmlns="http://www.w3.org/2000/svg" width="60" height="52" viewBox="0 0 60 52">
  <path fill="#fff" d="M30.001.5C44.082.5 55.5 11.918 55.5 26c0 .836-.044 1.672-.129 2.509l1.569-1.569a1.5 1.5 0 0 1 2.224 2.007l-.103.114-4 4a1.5 1.5 0 0 1-2.007.103l-.114-.103-4-4a1.5 1.5 0 0 1 2.007-2.224l.114.103 1.32 1.318c.079-.754.119-1.506.119-2.257 0-4.467-1.302-8.63-3.548-12.131-2.741.872-5.525 1.555-8.341 2.045l.018.097.136.774.064.392.119.793.108.804a54.32 54.32 0 0 1 .22 2.057h0l.068.84.029.424.05.854c.051 1.001.077 2.019.077 3.051s-.026 2.05-.077 3.051h0l-.05.854-.029.424-.068.84a54.32 54.32 0 0 1-.22 2.057h0l-.108.804-.058.398-.125.787-.136.774-.016.088a63.56 63.56 0 0 1 9.385 2.384l.027.01-.027-.01a1.5 1.5 0 0 1 .944 1.9c-.059.176-.148.334-.259.471l.055-.079C46.05 47.331 38.57 51.359 30.388 51.486A5.13 5.13 0 0 1 30 51.5a5.83 5.83 0 0 1-.39-.013l.38.002c-14.082 0-25.5-11.418-25.5-25.5 0-.828.043-1.656.127-2.485l-1.556 1.556a1.5 1.5 0 0 1-2.007.103l-.114-.103a1.5 1.5 0 0 1-.103-2.007l.103-.114 4-4a1.5 1.5 0 0 1 2.007-.103l.114.103 4 4a1.5 1.5 0 0 1-2.007 2.224l-.114-.103-1.33-1.328a21.61 21.61 0 0 0-.119 2.257c0 4.467 1.302 8.63 3.548 12.131 2.743-.872 5.53-1.556 8.348-2.046l-.015-.085-.136-.774-.064-.392-.119-.793-.108-.804a54.32 54.32 0 0 1-.22-2.057h0l-.068-.84-.029-.424-.05-.854C18.526 28.05 18.5 27.032 18.5 26h0l.002-.441a59.97 59.97 0 0 1 .075-2.61h0l.05-.854.029-.424.068-.84a54.32 54.32 0 0 1 .22-2.057h0l.108-.804.058-.398.125-.787.136-.774.018-.099c-3.158-.548-6.277-1.341-9.341-2.368a1.47 1.47 0 0 1-.445-.216c-.181-.129-.325-.292-.43-.473-.005-.011-.011-.022-.017-.033a.98.98 0 0 1-.044-.086c-.004-.011-.009-.022-.014-.033-.015-.033-.028-.067-.04-.101-.003-.011-.007-.023-.011-.035a1.16 1.16 0 0 1-.025-.082l-.01-.043a1.34 1.34 0 0 1-.016-.076 1.49 1.49 0 0 1-.01-.067l-.006-.055c-.003-.028-.005-.056-.006-.085v-.043c-.001-.076.004-.152.015-.229l.009-.055c.004-.022.009-.045.014-.067l.005-.02a1.49 1.49 0 0 1 .025-.09 1.1 1.1 0 0 1 .009-.029 1.52 1.52 0 0 1 .054-.139 2.17 2.17 0 0 1 .037-.075 1.4 1.4 0 0 1 .12-.195l-.011.018C14.019 4.551 21.666.5 30 .5h.001zm-.007 37.656c-2.335 0-4.656.139-6.959.414l.135.494.187.64a31.53 31.53 0 0 0 .5 1.52h0l.213.575.22.555c1.501 3.663 3.453 5.956 5.457 6.135h.243.26c2.006-.177 3.958-2.471 5.459-6.135h0l.22-.555.213-.575a31.53 31.53 0 0 0 .5-1.52h0l.187-.64.133-.493c-2.306-.275-4.631-.415-6.969-.415zm-9.959.852l-.481.082c-2.226.401-4.432.929-6.612 1.581a22.51 22.51 0 0 0 10.806 6.941c-1.239-1.73-2.297-3.97-3.133-6.585h0l-.208-.675c-.13-.438-.255-.886-.373-1.343zm19.93-.001l-.022.089a38.12 38.12 0 0 1-.35 1.254h0l-.208.675c-.833 2.607-1.888 4.843-3.122 6.571 4.162-1.214 7.887-3.62 10.74-6.937a60.1 60.1 0 0 0-7.038-1.652zM30 16.832a61.75 61.75 0 0 1-7.629-.473l-.004.023-.068.366-.128.742-.06.376-.112.762-.102.775-.132 1.185-.074.805-.062.816-.05.826-.038.836-.026.845L21.5 26l.002.43.013.854.026.845.038.836.05.826.062.816.074.805.132 1.185.102.775.112.762.06.376.128.742.137.728-.068-.352a61.75 61.75 0 0 1 15.263.001l.002-.012.068-.366.128-.742.06-.376.112-.762.102-.775.132-1.185.074-.805.062-.816.05-.826.038-.836.026-.845L38.5 26l-.015-1.284-.026-.845-.038-.836-.05-.826-.062-.816-.074-.805-.132-1.185-.102-.775-.112-.762-.06-.376-.128-.742-.137-.728.066.339a61.75 61.75 0 0 1-7.629.473zM30 3.5c-2.093 0-4.146 2.329-5.71 6.146h0l-.22.555-.213.575a31.53 31.53 0 0 0-.5 1.52h0l-.187.64-.13.482c2.303.275 4.625.414 6.96.414s4.658-.139 6.961-.414l-.131-.482-.187-.64a31.53 31.53 0 0 0-.5-1.52h0l-.213-.575-.22-.555C34.146 5.829 32.093 3.5 30 3.5zm-6.251.886l-.306.092a22.48 22.48 0 0 0-10.454 6.849c2.322.694 4.674 1.246 7.049 1.654.116-.455.24-.899.369-1.333h0l.208-.675c.836-2.616 1.895-4.857 3.134-6.588zm12.496-.008l.087.123c1.204 1.714 2.235 3.914 3.052 6.473h0l.208.675a38.22 38.22 0 0 1 .37 1.331c2.387-.408 4.751-.963 7.085-1.661-2.814-3.266-6.549-5.713-10.802-6.94z"></path>
</svg>