<svg xmlns="http://www.w3.org/2000/svg" width="58" height="52" viewBox="0 0 58 52">
  <path fill="#272e35" d="M45 .5c3.696 0 6.706 2.932 6.829 6.598l.004.235V20.5H53a4.17 4.17 0 0 1 4.162 3.959l.005.208v22.667A4.17 4.17 0 0 1 53 51.5h0-13.333a4.17 4.17 0 0 1-4.167-4.167h0V43.5H5.001a4.17 4.17 0 0 1-4.162-3.959l-.005-.208v-2.667A4.17 4.17 0 0 1 3.5 32.779V7.333C3.5 3.637 6.432.628 10.098.504L10.333.5H45zm9.166 43H38.5v3.833a1.17 1.17 0 0 0 1.04 1.16l.127.007H53a1.17 1.17 0 0 0 1.167-1.167h0l-.001-3.833zM53 23.5H39.667a1.17 1.17 0 0 0-1.167 1.167h0V40.5h15.666l.001-15.833a1.17 1.17 0 0 0-1.04-1.16L53 23.5zm-17.5 12H5.001a1.17 1.17 0 0 0-1.16 1.04l-.007.127v2.667a1.17 1.17 0 0 0 1.04 1.16l.127.007H35.5v-5zm9.5-32H10.333c-2.052 0-3.726 1.61-3.828 3.636l-.005.197V32.5h29v-7.833a4.17 4.17 0 0 1 3.959-4.162l.208-.005h9.166V7.333c0-2.052-1.61-3.726-3.636-3.828L45 3.5z"></path>
</svg>