<svg xmlns="http://www.w3.org/2000/svg" width="56" height="48" viewBox="0 0 56 48">
  <path fill="#272e35" d="M49.332 23.5a1.5 1.5 0 0 1 1.493 1.356l.007.144v21.333a1.5 1.5 0 0 1-2.993.144l-.007-.144V25a1.5 1.5 0 0 1 1.5-1.5zM6.666 36.833a1.5 1.5 0 0 1 1.493 1.356l.007.144v8a1.5 1.5 0 0 1-2.993.144l-.007-.144v-8a1.5 1.5 0 0 1 1.5-1.5zm28.531-6.217a1.5 1.5 0 0 1 1.493 1.356l.007.144V46.33a1.5 1.5 0 0 1-2.993.144l-.007-.144V32.117a1.5 1.5 0 0 1 1.5-1.5zm-14.4-2.854a1.5 1.5 0 0 1 1.493 1.356l.007.144v17.067a1.5 1.5 0 0 1-2.993.144l-.007-.144V29.263a1.5 1.5 0 0 1 1.5-1.5zM45.253 2.619a6.17 6.17 0 0 1 8.721 0 6.17 6.17 0 0 1-7.99 9.347L40.76 16.31a6.17 6.17 0 0 1-9.916 7.04c-1.735-1.735-2.22-4.248-1.455-6.417l-4.459-2.991a6.17 6.17 0 0 1-7.758.414l-5.221 4.357a6.17 6.17 0 0 1-9.925 7.021 6.17 6.17 0 0 1 0-8.721 6.17 6.17 0 0 1 8.011-.611l5.209-4.347a6.17 6.17 0 0 1 9.911-7.051c1.743 1.743 2.224 4.269 1.445 6.445l4.447 2.983a6.17 6.17 0 0 1 7.79-.427l5.222-4.343a6.17 6.17 0 0 1 1.193-7.044zM4.146 19.135a3.17 3.17 0 0 0 0 4.478 3.17 3.17 0 0 0 4.777-4.134 1.2 1.2 0 0 1-.102-.109c-.035-.042-.067-.085-.096-.129l-.1-.107-.146-.137a3.17 3.17 0 0 0-4.332.137zm33.151-2.522c-1.244-1.098-3.143-1.052-4.332.137-1.237 1.237-1.237 3.242 0 4.478s3.242 1.237 4.478 0a3.17 3.17 0 0 0 .309-4.12c-.048-.041-.092-.088-.134-.138s-.077-.098-.11-.149l-.066-.072zM22.889 6.989c-1.244-1.098-3.143-1.052-4.332.137a3.17 3.17 0 0 0-.273 4.168 1.11 1.11 0 0 1 .094.1l.074.098.105.112c1.189 1.189 3.089 1.235 4.332.137l.146-.137a3.19 3.19 0 0 0 .329-.386c.016-.033.036-.065.057-.096l.066-.087a3.17 3.17 0 0 0-.452-3.91h0zm28.818-2.386a3.17 3.17 0 0 0-4.649 4.247 1.17 1.17 0 0 1 .147.149c.043.051.081.104.116.159l.054.06a3.17 3.17 0 0 0 4.478 0c1.237-1.237 1.237-3.242 0-4.478h0z"></path>
</svg>